<?xml version="1.0" standalone="no"?>
<!DOCTYPE svg PUBLIC "-//W3C//DTD SVG 20010904//EN"
 "http://www.w3.org/TR/2001/REC-SVG-20010904/DTD/svg10.dtd">
<svg version="1.0" xmlns="http://www.w3.org/2000/svg"
 width="500.000000pt" height="500.000000pt" viewBox="0 0 500.000000 500.000000"
 preserveAspectRatio="xMidYMid meet">

<g transform="translate(0.000000,500.000000) scale(0.100000,-0.100000)"
fill="#000000" stroke="none">
<path d="M2665 4400 c-3 -5 -1 -10 4 -10 6 0 11 5 11 10 0 6 -2 10 -4 10 -3 0
-8 -4 -11 -10z"/>
<path d="M2700 3910 c-41 -4 -94 -15 -117 -24 -23 -8 -97 -22 -163 -31 -191
-24 -326 -77 -440 -170 -43 -35 -57 -42 -72 -34 -12 6 -18 6 -18 -1 0 -5 7
-10 15 -10 8 0 15 -4 15 -9 0 -15 -282 -295 -340 -337 -43 -31 -84 -48 -185
-78 -239 -69 -386 -146 -508 -267 -97 -97 -122 -154 -122 -284 0 -91 3 -106
30 -163 21 -43 37 -64 53 -68 13 -4 63 3 111 15 48 11 101 21 117 21 36 0 244
-69 329 -110 34 -16 147 -30 200 -24 49 5 50 5 79 -36 15 -23 46 -53 67 -67
21 -14 39 -29 39 -33 0 -3 -11 -17 -25 -30 -28 -27 -32 -67 -11 -108 8 -15 68
-80 135 -145 67 -65 121 -121 121 -123 0 -2 -6 -4 -13 -4 -7 0 -67 -27 -133
-59 -103 -51 -129 -69 -182 -126 -69 -74 -108 -142 -122 -214 -14 -75 1 -112
63 -158 50 -37 54 -38 132 -37 94 1 163 27 317 117 129 76 199 141 275 256 1
2 18 -4 37 -13 19 -9 48 -16 64 -16 30 0 30 -1 51 -92 12 -51 32 -149 46 -218
39 -194 60 -255 105 -300 75 -75 165 -99 236 -62 53 27 78 56 119 137 43 84
45 137 10 259 -30 103 -63 172 -116 243 -21 29 -39 55 -39 58 0 3 37 5 83 5
93 0 147 12 170 38 9 10 20 47 24 82 l8 65 45 1 c53 2 131 31 214 78 l59 34
53 -67 c87 -108 206 -183 353 -221 70 -19 92 -20 145 -12 33 5 74 10 90 10 19
0 39 11 59 31 35 34 36 41 23 216 -8 108 -7 112 23 200 26 74 32 107 33 185 3
153 -28 221 -169 371 -54 58 -113 129 -132 158 l-34 53 -8 186 c-13 326 -52
425 -237 604 -92 89 -106 98 -272 182 -96 49 -199 97 -229 107 -94 33 -333 53
-461 39z m170 -60 c-8 -5 -10 -10 -4 -10 5 0 15 5 21 11 7 7 23 9 40 4 15 -4
48 -9 73 -11 85 -6 130 -15 125 -25 -3 -5 0 -6 8 -3 16 6 107 -31 107 -45 0
-5 9 -7 20 -4 11 3 20 0 20 -6 0 -6 3 -10 8 -9 4 0 15 -2 25 -7 15 -6 16 -9 3
-19 -8 -6 -18 -24 -21 -41 -5 -23 -4 -26 4 -15 9 13 11 13 11 0 0 -9 -7 -25
-15 -36 -8 -12 -11 -25 -7 -29 4 -5 1 -5 -6 -1 -9 6 -10 11 -2 21 13 16 -20
27 -41 14 -10 -6 -11 -9 -1 -9 6 0 12 -7 12 -15 0 -8 4 -15 8 -15 5 0 9 -6 9
-14 0 -8 -8 -11 -19 -8 -10 2 -18 13 -18 23 0 11 -7 19 -16 19 -8 0 -12 -4 -9
-10 3 -6 -1 -7 -9 -4 -20 8 -20 14 0 29 15 11 15 12 -5 18 -16 4 -21 1 -21
-14 0 -10 -4 -19 -10 -19 -5 0 -10 -7 -10 -15 0 -8 5 -15 10 -15 6 0 10 -6 10
-12 0 -8 15 -14 38 -15 68 -4 77 -5 65 -10 -7 -3 -13 -9 -13 -14 0 -6 4 -8 9
-4 13 7 24 -12 16 -26 -8 -12 -45 21 -38 34 2 4 -5 7 -16 7 -13 0 -21 -7 -21
-17 0 -15 -2 -16 -10 -3 -7 11 -8 6 -4 -16 4 -23 -3 -48 -32 -105 -21 -41 -44
-78 -50 -84 -23 -19 -124 -178 -124 -195 0 -9 -6 -25 -14 -36 -15 -19 -15 -19
-29 0 -13 17 -12 23 4 50 22 37 14 54 -14 29 -18 -15 -20 -15 -8 -1 7 9 10 22
6 27 -3 6 0 8 8 5 10 -4 14 2 12 18 -4 42 -5 43 -15 28 -8 -13 -10 -13 -10 2
0 23 21 68 32 68 4 0 8 -5 8 -12 0 -15 13 -1 16 17 1 8 -2 12 -8 9 -7 -5 -9 3
-4 22 10 37 10 37 46 36 33 -1 33 12 0 21 -11 3 -18 1 -14 -4 3 -5 1 -9 -5 -9
-6 0 -8 31 -4 86 5 67 3 88 -7 94 -20 12 -30 3 -30 -27 0 -18 -4 -24 -15 -19
-8 3 -15 1 -15 -4 0 -6 7 -10 15 -10 23 0 8 -90 -19 -112 -11 -10 -16 -18 -9
-18 7 0 10 -7 7 -15 -4 -8 -11 -12 -17 -8 -6 4 -8 0 -4 -10 3 -9 -1 -23 -9
-32 -9 -8 -13 -15 -10 -15 4 0 -6 -19 -21 -42 -20 -31 -27 -55 -26 -85 1 -35
-2 -43 -17 -43 -10 0 -20 9 -23 20 -6 24 3 103 13 110 4 3 11 16 15 29 6 18 4
22 -6 15 -12 -6 -12 -5 0 9 8 10 9 17 3 17 -17 0 -26 40 -23 96 2 47 0 53 -34
82 -35 32 -48 36 -93 32 -55 -4 -92 -30 -124 -87 -17 -30 -40 -58 -51 -61 -10
-3 -14 -8 -9 -11 12 -8 26 -71 15 -71 -4 0 -18 -3 -30 -6 -14 -4 -23 -2 -23 5
0 7 5 9 10 6 11 -6 34 44 25 53 -3 3 -5 0 -5 -7 0 -8 -7 -10 -20 -6 -16 5 -20
2 -20 -19 0 -14 -5 -26 -11 -26 -7 0 -9 11 -5 30 4 21 1 32 -8 36 -8 3 -13 16
-12 30 1 28 5 29 32 9 17 -13 17 -14 2 -15 -10 0 -18 -4 -18 -10 0 -15 40 -12
41 3 2 22 -3 42 -13 48 -5 3 2 13 16 23 14 9 26 22 26 29 0 8 -2 9 -8 1 -11
-17 -49 -26 -57 -14 -3 5 2 10 12 11 16 0 16 1 -2 9 -11 5 -16 9 -11 9 5 1 3
8 -4 16 -6 8 -9 19 -5 26 6 8 9 8 15 -1 5 -8 10 -2 14 15 4 17 2 33 -6 43 -11
14 -10 15 6 9 16 -6 17 -5 6 8 -12 14 -10 14 16 5 l29 -11 -28 25 c-17 14 -24
27 -18 31 6 3 11 1 11 -4 0 -6 7 -11 15 -11 9 0 12 6 8 16 -5 14 -2 16 23 10
16 -4 32 -13 36 -19 5 -7 8 -3 8 11 0 13 -4 21 -9 18 -5 -3 -12 2 -15 11 -5
12 -9 14 -18 5 -7 -7 -17 -12 -23 -12 -5 0 -3 5 5 10 12 8 11 10 -7 10 -12 0
-23 -5 -25 -12 -3 -7 -7 -6 -11 5 -5 14 0 17 31 18 20 0 31 3 23 6 -11 5 -11
7 0 14 11 7 9 9 -6 9 -17 0 -17 2 -5 10 8 5 10 10 5 10 -6 0 -16 -5 -22 -11
-8 -8 -17 -7 -34 3 -23 12 -22 13 21 18 25 3 48 1 52 -5 5 -6 8 -6 8 1 0 7 16
15 36 18 19 4 43 10 51 13 13 5 15 2 10 -11 -4 -10 -3 -15 3 -11 6 3 10 1 10
-4 0 -14 -17 -14 -26 0 -5 8 -9 7 -14 -1 -5 -7 -21 -13 -37 -14 -22 -1 -28 -6
-29 -23 -1 -27 11 -30 24 -7 6 11 23 16 55 16 39 0 45 2 42 19 -4 20 14 26 31
10 5 -5 18 -5 29 -1 13 6 15 9 5 9 -13 1 -13 2 0 11 13 9 13 10 0 10 -8 0 -30
-4 -48 -9 -25 -8 -32 -7 -32 4 0 16 39 26 93 23 20 -1 40 2 44 5 3 4 31 7 62
7 40 0 52 -3 41 -10z m-523 -80 c-1 -21 -17 -29 -17 -9 0 6 -7 9 -15 6 -8 -4
-17 -2 -20 3 -3 5 7 11 22 13 16 2 29 5 30 6 1 0 1 -8 0 -19z m-111 -81 c-6
-52 -6 -52 43 -43 21 4 30 11 27 20 -3 7 2 18 10 24 11 10 14 10 15 -1 0 -8 4
-5 10 6 7 16 8 13 4 -14 -4 -25 -2 -32 9 -28 15 6 86 -48 86 -65 0 -6 -12 -8
-32 -3 -93 19 -112 18 -150 -12 -21 -15 -41 -38 -44 -50 -6 -21 -16 -27 -36
-24 -5 0 -8 -4 -8 -10 0 -8 -5 -7 -15 1 -9 7 -14 19 -11 27 3 7 1 13 -5 13 -5
0 -12 -7 -16 -16 -3 -8 -12 -13 -19 -10 -24 9 -74 -52 -74 -91 0 -22 -6 -36
-16 -40 -22 -8 -44 22 -44 61 0 20 -3 26 -9 18 -6 -10 -10 -10 -21 3 -7 9 -21
13 -31 10 -31 -10 -12 21 22 35 32 14 37 25 14 34 -10 3 -18 -1 -22 -12 -4 -9
-12 -21 -19 -27 -6 -5 -20 -23 -30 -39 -18 -29 -18 -29 3 -17 19 10 22 8 20
-8 0 -11 -4 -18 -8 -15 -16 9 -39 -10 -39 -33 0 -38 17 -62 40 -56 14 4 20 0
20 -11 0 -9 -6 -16 -12 -16 -7 0 -5 -5 5 -11 23 -13 13 -29 -15 -21 -16 4 -19
2 -14 -9 4 -8 -2 -3 -13 10 -14 15 -19 31 -15 44 4 12 1 23 -7 28 -19 12 -29
11 -29 -1 0 -5 7 -10 15 -10 8 0 15 -5 15 -11 0 -5 -13 -2 -29 7 -17 10 -28
21 -26 25 3 4 -2 9 -10 13 -10 4 -15 -1 -15 -15 0 -14 -5 -19 -14 -16 -14 5
-36 -10 -36 -25 0 -5 12 -6 28 -2 18 4 23 3 14 -4 -11 -7 -8 -11 12 -16 18 -4
33 -22 53 -63 29 -59 60 -88 106 -99 44 -10 32 20 -31 81 -22 20 -22 23 -6 29
9 4 20 3 23 -1 3 -4 15 -9 26 -11 20 -3 20 -2 1 13 -11 8 -15 15 -9 15 12 0
45 -35 39 -41 -3 -2 13 -3 35 -1 42 4 54 26 20 37 -11 3 -25 13 -33 22 -11 14
-11 16 1 9 9 -6 12 -5 9 5 -3 8 -10 13 -16 12 -6 -2 -9 4 -6 12 6 15 25 21 23
8 -4 -25 16 -53 36 -53 12 0 28 -6 34 -13 6 -8 29 -20 51 -27 46 -15 90 -5
143 33 23 15 33 17 51 9 47 -21 111 -24 166 -8 l53 16 39 -31 c41 -33 94 -42
149 -27 24 7 27 5 32 -25 3 -19 23 -72 45 -118 22 -46 42 -96 46 -111 3 -15
24 -47 45 -72 22 -25 45 -54 53 -64 21 -28 69 -62 89 -62 14 0 19 7 19 30 0
39 31 100 67 133 15 14 60 42 98 63 39 20 80 45 92 57 13 11 24 19 25 16 2 -2
11 -17 20 -34 9 -16 33 -43 53 -60 30 -24 45 -29 90 -29 49 0 55 -3 64 -26 5
-14 22 -38 38 -55 25 -26 29 -36 25 -72 -3 -33 -8 -43 -22 -43 -12 0 -20 -10
-24 -34 l-6 -33 -38 12 c-36 13 -37 15 -37 62 0 41 -3 48 -20 48 -12 0 -21 -8
-23 -20 -2 -11 -8 -32 -14 -47 -9 -24 -16 -28 -47 -28 -46 0 -141 -27 -141
-40 0 -13 -3 -13 66 10 55 18 104 26 104 16 0 -22 -17 -36 -41 -36 -40 0 -117
-31 -170 -68 -64 -45 -159 -138 -159 -156 0 -22 22 -20 53 4 14 11 28 20 31
20 3 0 3 -20 0 -44 -5 -35 -1 -55 17 -93 24 -50 78 -108 110 -118 10 -4 19
-13 19 -21 0 -8 5 -14 10 -14 6 0 10 7 10 15 0 23 18 18 46 -12 l24 -26 -2 23
c-4 31 26 39 53 14 19 -18 27 -6 8 13 -7 7 -2 15 15 26 55 37 116 120 141 195
9 26 19 37 34 37 24 0 25 1 16 38 -5 18 -2 36 10 54 16 24 19 25 30 10 16 -22
29 -22 20 1 -4 9 -8 29 -10 44 -4 25 -2 26 21 16 13 -6 24 -17 24 -25 0 -20
-38 -92 -70 -133 -48 -61 -69 -121 -95 -265 -20 -106 -55 -178 -125 -253 -73
-78 -142 -107 -250 -107 -47 1 -95 6 -107 13 -27 15 -211 16 -250 1 -15 -6
-70 -15 -122 -20 -81 -8 -104 -6 -175 12 -105 27 -135 46 -269 171 -117 109
-230 182 -320 208 -81 22 -247 142 -247 177 0 8 -11 37 -25 65 -14 27 -25 52
-25 54 0 2 13 4 28 4 33 0 68 22 58 38 -3 6 -24 10 -45 9 -50 -2 -71 16 -71
60 0 30 2 33 14 24 8 -7 34 -11 58 -9 35 2 43 7 43 23 0 17 -10 22 -57 29 -52
8 -57 11 -62 39 -3 16 -6 40 -6 53 0 20 3 23 18 15 29 -16 97 -28 117 -21 15
5 9 10 -30 25 -76 28 -105 59 -105 114 -1 45 -2 46 -52 71 -44 22 -65 25 -152
25 -77 0 -108 -4 -131 -17 -55 -31 -127 -58 -138 -51 -5 3 -7 1 -3 -5 3 -6 -8
-15 -28 -22 -78 -26 -169 -135 -205 -247 -26 -81 -61 -148 -71 -137 -5 5 -13
34 -18 64 -12 67 0 145 33 210 20 40 108 149 126 158 4 2 29 20 57 40 95 70
168 104 297 140 135 38 150 41 160 31 7 -7 4 -8 -10 -4 -19 6 -19 6 -1 -5 14
-10 21 -9 34 4 13 12 13 16 2 16 -20 0 -3 13 22 17 12 2 25 -2 30 -9 6 -10 8
-10 8 -1 0 7 7 10 16 6 15 -6 15 -8 -2 -20 -13 -10 -14 -13 -3 -14 8 -1 3 -5
-11 -9 -21 -7 -22 -8 -5 -9 17 -1 17 -3 5 -11 -8 -5 -10 -10 -5 -10 18 0 31
15 30 35 0 15 7 20 26 20 21 1 25 -3 21 -18 -3 -10 -11 -21 -18 -24 -8 -3 -14
-9 -14 -14 0 -4 7 -6 16 -2 9 3 20 0 25 -8 6 -10 9 -10 9 -1 0 6 7 12 16 12
11 0 14 5 10 18 -4 9 10 -2 31 -24 46 -51 71 -64 118 -64 47 0 42 14 -15 42
-25 13 -44 29 -43 35 2 6 -6 14 -16 18 -28 9 -32 31 -11 50 24 22 17 35 -17
35 -25 0 -26 0 -8 -20 10 -11 13 -20 7 -20 -6 0 -13 4 -17 10 -3 5 -13 6 -22
3 -9 -4 -14 -2 -10 3 3 6 -3 15 -14 22 -13 8 -19 9 -19 1 0 -6 -12 -9 -28 -8
-15 2 -33 0 -40 -5 -7 -4 -16 -6 -19 -3 -7 8 73 48 89 45 7 -2 12 3 13 10 0 7
43 55 95 107 52 51 124 127 160 168 36 41 70 76 76 76 6 1 21 12 34 26 13 14
30 23 38 20 7 -2 10 -1 7 5 -6 10 74 60 98 60 33 0 17 -18 -21 -25 -23 -3 -39
-12 -39 -20 0 -7 6 -11 14 -8 7 3 13 -1 13 -8 0 -11 2 -11 9 1 6 8 7 18 5 22
-3 4 0 8 5 8 6 0 11 -4 11 -10 0 -5 12 -10 28 -10 21 0 24 2 12 10 -8 5 -10
10 -4 10 7 0 15 7 18 16 5 14 4 15 -9 4 -12 -10 -15 -10 -15 2 0 20 9 28 27
21 11 -5 13 -17 9 -54z m64 41 c-6 -11 -15 -20 -20 -20 -6 0 -2 9 7 20 10 11
19 20 21 20 1 0 -2 -9 -8 -20z m55 0 c3 -5 1 -10 -4 -10 -6 0 -11 5 -11 10 0
6 2 10 4 10 3 0 8 -4 11 -10z m995 -51 c0 -6 7 -8 16 -5 8 3 12 2 9 -4 -3 -6
4 -11 17 -11 19 -1 18 -3 -7 -9 l-30 -8 30 -1 c28 -2 29 -3 7 -11 -26 -11 -52
-3 -52 15 0 7 -3 20 -6 29 -3 9 -1 16 5 16 6 0 11 -5 11 -11z m99 -15 c14 -12
-19 -1 -35 12 -18 14 -18 14 6 3 14 -6 27 -13 29 -15z m-60 -71 c2 -2 1 -6 -2
-10 -4 -3 -16 2 -27 12 -18 17 -20 17 -14 2 4 -12 1 -17 -11 -17 -9 0 -13 5
-10 10 3 6 2 10 -4 10 -6 0 -8 7 -5 15 6 14 17 11 73 -22z m91 12 c-7 -8 -16
-15 -21 -15 -5 0 -9 7 -9 15 0 9 9 15 21 15 18 0 19 -2 9 -15z m-40 -15 c0 -4
-11 -15 -25 -24 -28 -19 -30 -17 -14 18 10 22 39 27 39 6z m93 -7 c-3 -7 -9
-10 -14 -7 -14 8 -11 21 5 21 8 0 12 -6 9 -14z m-223 -14 c0 -4 -7 -6 -15 -3
-8 4 -15 10 -15 15 0 4 7 6 15 3 8 -4 15 -10 15 -15z m190 11 c0 -5 -4 -10
-10 -10 -5 0 -10 5 -10 10 0 6 5 10 10 10 6 0 10 -4 10 -10z m67 -35 c-15 -16
-19 -13 -11 9 3 9 10 13 15 10 5 -3 3 -11 -4 -19z m-112 5 c3 -5 2 -10 -4 -10
-5 0 -13 5 -16 10 -3 6 -2 10 4 10 5 0 13 -4 16 -10z m163 -8 c2 -7 -3 -12
-10 -12 -8 0 -15 7 -15 15 0 18 19 15 25 -3z m-270 -38 c6 -7 8 -15 3 -18 -5
-3 -11 1 -15 9 -3 8 -12 15 -21 15 -8 0 -15 4 -15 10 0 11 30 1 48 -16z m302
11 c14 -16 10 -18 -14 -9 -9 3 -16 10 -16 15 0 14 16 11 30 -6z m-224 -32
c-11 -11 -17 4 -9 23 7 18 8 18 11 1 2 -10 1 -21 -2 -24z m184 27 c0 -5 -4
-10 -10 -10 -5 0 -10 5 -10 10 0 6 5 10 10 10 6 0 10 -4 10 -10z m-894 -25 c7
-17 -13 -39 -41 -43 -11 -2 -25 -8 -32 -14 -7 -5 -18 -6 -24 -2 -8 4 -9 3 -5
-5 4 -6 16 -9 26 -6 10 3 22 1 25 -6 6 -8 10 -7 16 2 7 11 9 10 9 -3 0 -10 7
-18 16 -18 9 0 12 5 8 12 -4 7 -3 8 4 4 13 -8 15 0 14 49 0 29 0 30 11 6 24
-51 -42 -102 -83 -63 -12 13 -15 12 -24 -7 -5 -11 -13 -21 -19 -21 -5 0 -4 6
2 14 9 11 5 16 -19 26 -38 16 -38 23 2 51 17 13 28 16 23 8 -6 -10 -3 -9 11 2
16 15 38 24 67 28 4 0 10 -6 13 -14z m569 -5 c6 -9 -8 -14 -27 -11 -5 0 -8 -9
-8 -22 0 -13 -7 -32 -15 -43 -22 -29 -18 -44 13 -45 15 0 21 -3 15 -6 -7 -2
-13 -11 -13 -20 0 -8 -6 -13 -12 -10 -7 2 -12 10 -10 16 1 6 -2 11 -8 11 -14
0 -12 -37 3 -43 9 -4 8 -8 -3 -16 -9 -6 -10 -11 -3 -11 6 0 18 7 27 15 17 18
36 20 36 4 0 -6 6 -9 14 -6 7 3 19 0 25 -6 9 -9 14 -8 21 3 7 11 10 11 10 2 0
-10 3 -10 14 0 12 11 11 14 -6 21 -11 4 -23 5 -27 2 -4 -2 -8 2 -8 10 0 8 7
15 16 15 12 0 12 3 3 12 -9 9 -15 10 -20 2 -4 -6 -18 -13 -30 -17 -22 -5 -23
-4 -8 12 19 21 21 57 4 64 -8 4 -7 6 3 6 9 1 22 8 29 16 7 8 17 15 22 15 7 0
6 -5 -1 -13 -6 -8 -8 -17 -4 -20 3 -4 0 -13 -6 -21 -10 -12 -9 -17 7 -25 11
-6 22 -7 26 -3 4 3 4 -1 1 -10 -4 -11 0 -18 14 -23 12 -3 21 -11 21 -16 0 -5
4 -9 10 -9 5 0 6 7 3 17 -4 11 -3 14 5 9 7 -4 12 -3 12 3 0 5 -4 11 -8 13 -5
2 -5 18 0 36 5 18 13 30 18 27 6 -4 10 0 10 7 0 8 -14 19 -32 26 -17 6 -29 15
-25 19 4 4 13 1 19 -5 17 -17 38 -15 32 3 -4 9 1 18 11 21 22 9 51 -27 49 -59
-4 -71 -63 -186 -136 -266 -39 -42 -130 -97 -146 -87 -10 6 -9 36 1 53 8 13
-1 43 -14 43 -5 0 -9 8 -9 17 0 15 -3 14 -15 -4 -10 -14 -21 -20 -32 -16 -13
5 -15 2 -11 -15 6 -20 5 -20 -18 -5 -22 14 -36 31 -15 18 5 -3 16 2 25 11 9 8
20 12 26 9 5 -3 10 1 10 10 0 15 -52 33 -75 26 -5 -1 -1 7 9 18 22 25 36 27
36 6 0 -8 4 -15 10 -15 5 0 7 7 4 14 -4 12 1 14 21 10 22 -4 24 -2 13 9 -7 8
-22 12 -33 9 -18 -5 -18 -3 -6 11 7 9 18 14 23 11 5 -3 8 0 7 7 -4 18 10 59
20 59 4 0 13 19 20 43 22 78 47 107 66 77z m335 -46 c0 -2 -3 -4 -7 -4 -16 0
-31 16 -38 40 l-8 25 27 -28 c14 -15 26 -30 26 -33z m88 15 c44 -49 81 -115
82 -146 0 -13 4 -23 9 -23 5 0 17 -32 26 -71 14 -58 15 -78 6 -109 l-11 -39
-35 15 c-19 8 -49 14 -66 14 -26 0 -29 2 -20 14 7 8 8 16 2 18 -5 1 -11 12
-13 23 -4 25 -29 55 -45 55 -6 0 -15 4 -18 10 -3 5 0 7 8 5 7 -3 24 -2 37 3
23 9 23 9 -9 20 -17 6 -29 7 -26 3 2 -5 -4 -11 -15 -14 -11 -3 -17 -1 -14 4 3
6 -6 7 -22 3 -29 -8 -42 -8 -59 -4 -23 6 -33 -1 -28 -19 3 -10 -2 -21 -10 -24
-20 -8 -6 -105 18 -123 32 -23 95 -15 95 12 0 8 5 14 10 14 6 0 10 8 10 18 -1
15 -1 16 -10 1 -8 -14 -16 -15 -49 -7 -31 8 -38 14 -34 29 7 26 40 48 64 42
10 -3 17 -9 14 -13 -3 -4 3 -7 12 -6 23 1 31 -72 9 -80 -8 -3 -12 -12 -9 -20
3 -9 -2 -14 -17 -14 -12 0 -18 -4 -15 -10 8 -13 -54 -40 -90 -40 -41 0 -81 26
-99 64 -19 41 -20 58 -4 74 15 15 31 16 22 0 -4 -7 -3 -8 4 -4 6 4 9 13 6 20
-3 8 6 23 20 33 14 11 30 31 37 45 7 18 19 25 37 26 52 0 52 0 40 27 -6 14
-15 25 -20 25 -4 0 -8 7 -8 15 0 8 5 15 11 15 5 0 7 5 4 10 -3 6 -4 19 0 29 5
17 9 17 43 6 37 -13 54 -41 32 -55 -7 -4 -9 -17 -5 -33 6 -22 10 -25 26 -16
15 8 19 6 19 -6 0 -12 6 -15 20 -10 14 5 20 2 20 -9 0 -9 3 -15 8 -15 26 4 33
-2 18 -17 -9 -8 -16 -25 -16 -37 0 -18 2 -19 10 -7 8 12 10 9 10 -12 0 -29 17
-38 26 -15 3 8 1 36 -3 63 -7 37 -13 49 -26 48 -20 -2 -22 7 -5 24 9 9 3 19
-24 45 -29 27 -35 39 -31 60 4 22 2 26 -11 21 -9 -3 -16 -10 -16 -15 0 -5 -4
-9 -10 -9 -5 0 -10 7 -10 15 0 12 -5 13 -27 5 -26 -9 -27 -9 -9 5 11 8 28 15
39 15 10 0 16 4 12 9 -3 5 -1 13 5 16 6 4 8 15 5 26 -11 33 23 22 63 -22z
m-333 21 c3 -5 1 -10 -4 -10 -6 0 -11 5 -11 10 0 6 2 10 4 10 3 0 8 -4 11 -10z
m-945 -10 c0 -5 -4 -10 -10 -10 -5 0 -10 5 -10 10 0 6 5 10 10 10 6 0 10 -4
10 -10z m-36 -15 c-3 -8 -9 -14 -12 -13 -20 2 -32 -3 -27 -12 3 -5 1 -10 -4
-10 -18 0 -12 18 11 34 28 20 39 20 32 1z m1011 -15 c13 -6 15 -9 5 -9 -8 0
-22 4 -30 9 -18 12 -2 12 25 0z m-1445 -24 c0 -10 -7 -12 -22 -9 -18 5 -21 3
-11 -7 9 -10 8 -16 -3 -27 -14 -15 -34 -10 -34 9 0 5 7 7 16 4 12 -4 15 -2 11
9 -4 8 1 19 11 24 24 14 32 13 32 -3z m164 8 c21 -8 20 -20 -1 -28 -10 -4 -14
-4 -10 0 4 4 2 13 -4 21 -13 14 -9 16 15 7z m1233 -26 c-3 -7 -5 -2 -5 12 0
14 2 19 5 13 2 -7 2 -19 0 -25z m-1129 -42 c13 -15 14 -18 2 -12 -8 4 -6 0 4
-8 20 -16 20 -16 0 -31 -26 -20 -33 -19 -27 5 6 24 -24 29 -33 5 -5 -12 -9
-13 -21 -4 -10 9 -17 9 -25 1 -7 -7 -17 -12 -22 -12 -6 0 -5 4 3 9 12 8 12 12
2 25 -8 9 -10 16 -6 16 4 0 1 8 -6 18 -11 14 -9 13 9 -2 18 -16 26 -17 47 -8
13 6 28 24 31 39 l7 27 9 -24 c5 -14 17 -33 26 -44z m362 49 c0 -8 -4 -15 -10
-15 -5 0 -10 -9 -10 -20 0 -11 4 -20 10 -20 5 0 7 8 3 18 -5 15 -4 14 9 -2 8
-10 20 -16 26 -12 7 4 12 2 12 -3 0 -11 -11 -14 -40 -12 -10 0 -11 -1 -2 -5 6
-3 10 -10 7 -15 -4 -5 0 -6 8 -3 8 3 18 1 22 -5 3 -6 11 -11 18 -11 6 0 2 7
-9 15 -13 11 -14 14 -4 13 9 -2 14 3 12 11 -2 11 0 12 10 4 28 -24 72 -19 101
9 26 27 40 26 15 -1 -11 -11 -9 -11 9 -2 19 10 22 9 17 -4 -4 -8 -12 -15 -19
-15 -8 0 -16 -9 -20 -19 -3 -10 -18 -24 -33 -30 -34 -14 -108 -9 -105 7 2 6
-3 9 -11 6 -20 -8 -46 40 -46 86 0 29 4 40 15 40 8 0 15 -7 15 -15z m690 -5
c0 -5 -2 -10 -4 -10 -3 0 -8 5 -11 10 -3 6 -1 10 4 10 6 0 11 -4 11 -10z
m-1400 -32 c0 -5 -4 -8 -10 -8 -5 0 -10 10 -10 23 0 18 2 19 10 7 5 -8 10 -18
10 -22z m105 2 c17 -19 17 -19 -8 -7 -14 6 -23 15 -21 19 7 11 9 10 29 -12z
m1662 -22 c-3 -7 -5 -2 -5 12 0 14 2 19 5 13 2 -7 2 -19 0 -25z m-1301 -13 c1
-8 -4 -11 -12 -8 -15 6 -18 16 -7 26 8 9 16 1 19 -18z m59 5 c-3 -5 -16 -15
-28 -21 -19 -9 -19 -8 3 10 28 23 34 26 25 11z m-619 -20 c0 -11 -4 -20 -8
-20 -10 0 -11 24 -1 33 9 9 9 10 9 -13z m1524 10 c0 -5 -2 -10 -4 -10 -3 0 -8
5 -11 10 -3 6 -1 10 4 10 6 0 11 -4 11 -10z m331 -27 c-8 -15 -10 -15 -11 -2
0 17 10 32 18 25 2 -3 -1 -13 -7 -23z m-1464 -25 c-21 -13 -36 -9 -34 10 1 15
5 17 23 8 15 -7 19 -13 11 -18z m1347 7 c-4 -8 -10 -15 -15 -15 -4 0 -6 7 -3
15 4 8 10 15 15 15 4 0 6 -7 3 -15z m-613 -73 c-6 -10 -7 -22 -4 -26 3 -3 1
-6 -5 -6 -13 0 -16 29 -6 55 4 10 10 13 16 7 6 -6 6 -17 -1 -30z m614 18 c3
-5 1 -10 -4 -10 -6 0 -11 5 -11 10 0 6 2 10 4 10 3 0 8 -4 11 -10z m-438 -25
c0 -8 -4 -12 -9 -9 -5 3 -6 10 -3 15 9 13 12 11 12 -6z m39 3 c4 -6 3 -8 -4
-4 -5 3 -13 0 -15 -6 -3 -8 -6 -6 -6 5 -1 19 14 23 25 5z m-249 -40 c-3 -8 -6
-5 -6 6 -1 11 2 17 5 13 3 -3 4 -12 1 -19z m183 -8 c0 -11 -7 -20 -15 -20 -13
0 -14 4 -5 20 6 11 13 20 15 20 3 0 5 -9 5 -20z m136 -34 c10 -11 11 -15 1
-19 -9 -3 -9 -8 2 -21 13 -16 11 -20 -15 -41 -16 -14 -35 -22 -41 -20 -7 2
-13 -1 -14 -8 0 -12 -89 -82 -89 -70 0 3 8 12 18 20 9 7 13 12 7 11 -5 -2 -11
2 -12 7 -2 6 5 10 15 11 38 2 43 4 36 15 -3 6 -15 9 -25 6 -11 -3 -17 -1 -13
4 3 5 19 9 35 9 17 0 28 4 24 10 -3 5 0 7 8 4 25 -9 28 14 5 32 -14 10 -17 14
-6 11 12 -4 15 -2 11 9 -3 7 -2 14 2 14 13 0 32 -25 27 -38 -2 -6 1 -12 7 -12
9 0 7 37 -4 68 -6 16 3 15 21 -2z m-156 -6 c0 -5 -7 -7 -15 -4 -8 4 -15 8 -15
10 0 2 7 4 15 4 8 0 15 -4 15 -10z m-130 -14 c0 -8 -4 -18 -10 -21 -5 -3 -10
3 -10 14 0 12 5 21 10 21 6 0 10 -6 10 -14z m103 -3 c-7 -2 -13 -12 -13 -20 0
-9 -3 -14 -6 -10 -10 10 4 37 18 36 10 0 10 -2 1 -6z m87 -3 c0 -5 -5 -10 -11
-10 -5 0 -7 5 -4 10 3 6 8 10 11 10 2 0 4 -4 4 -10z m-210 -43 c0 -4 -6 -2
-14 5 -8 7 -12 17 -9 22 5 8 23 -12 23 -27z m127 1 c-3 -8 -6 -5 -6 6 -1 11 2
17 5 13 3 -3 4 -12 1 -19z m23 -43 c7 -9 8 -15 2 -15 -5 0 -12 7 -16 15 -3 8
-4 15 -2 15 2 0 9 -7 16 -15z m675 5 c-3 -5 -2 -10 4 -10 5 0 12 4 15 8 3 5
15 8 28 7 18 -1 24 -8 26 -35 4 -41 -45 -97 -96 -106 -28 -5 -38 -2 -63 22
-31 29 -38 68 -15 77 22 9 28 -5 9 -25 -9 -10 -11 -18 -5 -18 6 0 13 6 15 13
4 8 11 5 24 -9 30 -36 57 -38 90 -8 16 15 21 25 11 21 -9 -3 -22 1 -28 9 -7 8
-21 14 -31 14 -23 0 -24 8 -2 32 17 19 28 24 18 8z m-688 -56 c-3 -3 -12 -4
-19 -1 -8 3 -5 6 6 6 11 1 17 -2 13 -5z m-1493 -34 c24 -9 26 -13 20 -50 -18
-111 4 -305 46 -396 16 -37 30 -68 30 -70 0 -1 -16 -8 -35 -14 -49 -16 -162
12 -295 73 -130 59 -239 75 -333 49 l-69 -20 7 26 c15 59 108 240 143 276 41
43 155 100 242 121 66 16 208 19 244 5z m1476 -19 c0 -11 -9 -21 -22 -24 -21
-5 -21 -5 -5 7 9 7 17 18 17 25 0 6 2 11 5 11 3 0 5 -8 5 -19z m819 -43 c-2
-56 6 -95 25 -113 6 -7 20 -25 31 -41 11 -15 70 -80 131 -144 61 -63 120 -133
132 -155 31 -61 48 -136 42 -180 l-5 -40 -18 48 c-22 56 -73 123 -174 227
-100 104 -132 156 -130 213 2 36 -3 51 -22 71 -14 14 -20 26 -15 26 10 0 -17
20 -28 20 -3 0 -20 -12 -37 -26 l-31 -26 10 27 c12 32 8 40 -16 31 -13 -5 -14
-9 -4 -21 10 -12 9 -16 -3 -21 -13 -5 -13 -8 4 -25 11 -11 17 -25 13 -30 -4
-8 0 -7 14 0 14 7 23 8 27 1 4 -6 11 -8 16 -5 15 10 10 -12 -7 -30 -19 -18
-34 -15 -74 18 -44 35 -52 128 -12 140 10 3 24 8 34 12 10 4 18 1 21 -7 2 -7
3 -5 1 5 -2 17 27 41 40 32 3 -3 4 -2 1 2 -5 6 23 43 32 43 2 0 3 -24 2 -52z
m-168 -241 c-18 -18 -51 23 -44 55 l5 27 25 -36 c17 -25 21 -39 14 -46z m-113
43 c19 -10 -12 -40 -41 -40 -34 0 -47 13 -40 38 5 20 10 22 37 16 17 -3 37
-10 44 -14z m80 -52 c9 -9 8 -16 -5 -30 -30 -33 -63 -16 -43 22 12 23 30 26
48 8z m232 -88 c13 -22 69 -85 123 -138 154 -151 186 -243 152 -426 -13 -67
-14 -99 -7 -130 6 -22 14 -67 17 -98 7 -55 6 -58 -14 -58 -40 0 -80 30 -154
115 -61 69 -78 96 -96 153 -13 41 -42 99 -71 141 -49 69 -80 92 -157 115 -43
13 -18 115 52 216 25 36 53 90 62 120 25 86 36 85 93 -10z m-450 -20 c0 -8 17
-26 37 -40 l36 -25 -39 -8 c-21 -4 -50 -19 -64 -32 -27 -26 -40 -24 -40 6 0
10 -15 29 -32 43 l-33 26 27 0 c41 0 57 10 74 43 12 23 18 27 25 16 5 -8 9
-21 9 -29z m110 -175 c0 -8 -9 -19 -19 -25 -27 -14 -40 9 -16 27 24 17 35 17
35 -2z m-70 -44 c0 -11 -5 -23 -11 -27 -15 -9 -33 12 -26 30 9 23 37 20 37 -3z
m-1528 -134 c51 -18 54 -23 23 -43 -47 -31 -135 13 -98 49 10 10 34 8 75 -6z
m1783 -36 c43 -25 110 -126 130 -197 20 -71 117 -202 185 -249 22 -15 38 -30
36 -32 -2 -3 -35 -7 -73 -10 -60 -4 -78 -1 -148 27 -44 18 -91 42 -105 55 -14
12 -44 35 -68 49 -43 27 -110 91 -139 133 -13 20 -11 27 31 101 25 43 46 84
46 90 0 6 5 23 12 37 13 29 37 28 93 -4z m-1645 -30 c3 -3 19 -13 35 -21 17
-8 77 -60 134 -115 l103 -100 -63 -5 -64 -5 -18 40 c-9 22 -33 51 -52 64 -34
23 -35 23 -82 7 -27 -10 -55 -19 -64 -22 -9 -3 -39 19 -82 62 -37 37 -65 69
-63 71 2 2 23 -1 47 -6 39 -9 46 -7 83 19 38 26 71 30 86 11z m77 -210 c12
-18 20 -37 17 -42 -14 -23 -94 0 -124 36 -12 15 -12 19 5 32 33 23 76 12 102
-26z m833 -106 c0 -25 -57 -75 -86 -75 -31 0 -97 46 -91 63 3 11 154 37 170
30 4 -3 7 -10 7 -18z m-670 -2 c-36 -8 -120 -32 -187 -54 -67 -21 -127 -39
-133 -39 -5 0 -10 11 -10 25 0 29 15 37 125 65 46 12 105 18 170 18 l100 0
-65 -15z m764 11 c12 -5 16 -20 16 -64 0 -56 -1 -58 -31 -69 -18 -6 -64 -11
-103 -10 -68 1 -69 2 -36 13 73 24 101 45 99 74 -5 61 8 74 55 56z m-580 -14
c27 -10 35 -30 12 -30 -16 0 -61 -43 -89 -85 -10 -16 -16 -21 -12 -10 4 11 12
35 17 54 9 32 36 81 43 81 2 0 15 -4 29 -10z m273 -38 c7 -15 32 -40 55 -55
l43 -28 -37 4 c-27 2 -52 16 -88 47 -27 24 -50 47 -50 52 0 4 15 8 33 8 25 0
35 -6 44 -28z m-102 -43 c39 -34 74 -65 79 -70 5 -5 10 -23 11 -41 1 -33 0
-32 -92 60 -82 80 -103 112 -75 112 4 0 39 -28 77 -61z m-295 28 c0 -8 -10
-23 -22 -34 -20 -18 -214 -143 -222 -143 -2 0 -45 -25 -96 -56 -142 -85 -242
-116 -256 -79 -9 24 34 102 74 134 80 62 273 141 429 175 87 18 93 19 93 3z
m-450 -27 c0 -27 -43 -54 -75 -46 -36 9 -31 23 13 36 20 7 41 16 47 21 13 13
15 11 15 -11z m600 -5 c0 -20 -35 -85 -46 -85 -22 0 -17 47 8 70 20 19 38 26
38 15z m-720 -64 c0 -5 10 -11 23 -15 21 -6 21 -7 -15 -38 -36 -33 -78 -103
-78 -133 0 -20 -7 -19 -37 5 -14 11 -32 20 -39 20 -19 0 -18 3 15 56 38 62
131 136 131 105z m851 -43 c104 -107 259 -357 259 -417 0 -30 -36 -98 -59
-110 -43 -24 -85 60 -172 349 -12 41 -32 105 -45 143 -12 37 -20 67 -18 67 2
0 18 -15 35 -32z m-73 -30 c12 -29 31 -89 42 -133 28 -105 105 -318 127 -353
l18 -27 -28 22 c-20 16 -37 21 -57 17 -23 -5 -29 -2 -34 17 -4 13 -13 47 -21
74 -7 28 -21 93 -30 145 -27 155 -47 244 -57 257 -10 13 -3 33 11 33 5 0 18
-24 29 -52z m-286 15 c-36 -50 -64 -74 -80 -71 -32 6 -17 32 38 65 30 18 56
33 58 33 2 0 -6 -12 -16 -27z m533 -33 l20 -25 -22 19 c-13 11 -23 24 -23 29
0 6 1 8 3 6 1 -2 11 -15 22 -29z m38 -76 c36 -8 79 -75 101 -158 10 -33 22
-75 27 -92 5 -17 9 -51 9 -75 0 -95 -122 -240 -187 -223 -17 5 -20 13 -19 50
1 37 4 44 21 42 69 -5 113 29 141 109 18 50 18 54 0 105 -11 29 -27 64 -36 78
-9 14 -31 51 -48 83 -18 31 -41 66 -52 77 -25 25 -27 50 -2 27 9 -8 30 -19 45
-23z m-683 -13 c0 -5 -12 -19 -26 -30 -36 -29 -55 -14 -20 16 28 24 46 29 46
14z m-110 -30 c-4 -16 -6 -32 -3 -35 13 -13 -202 -97 -279 -109 -37 -6 -38 -5
-38 26 0 32 1 33 63 44 34 7 80 21 102 31 22 11 65 31 95 45 69 33 70 33 60
-2z m-375 -47 c17 -37 11 -84 -13 -92 -20 -6 -70 51 -67 78 1 14 3 35 4 47 1
20 4 21 30 12 18 -7 36 -24 46 -45z m1021 -352 c20 -16 39 -72 25 -72 -13 0
-71 62 -71 76 0 19 20 17 46 -4z"/>
<path d="M2752 3835 c-18 -8 -31 -19 -30 -26 2 -6 -11 -16 -28 -23 -24 -9 -30
-16 -28 -33 4 -22 -9 -29 -39 -24 -5 1 -6 -3 -3 -8 13 -21 56 2 56 30 0 16 7
19 43 17 27 -1 48 -8 59 -20 11 -13 18 -15 23 -8 4 6 -1 18 -11 26 -14 11 -16
17 -6 20 6 3 10 10 6 15 -3 5 0 9 6 9 7 0 9 -8 5 -20 -4 -11 -2 -20 4 -20 6 0
11 5 11 10 0 6 7 10 15 10 11 0 15 9 13 30 -2 33 -18 42 -18 11 0 -14 -5 -18
-19 -14 -11 3 -21 11 -23 18 -2 11 -9 11 -36 0z m28 -31 c0 -17 -22 -14 -28 4
-2 7 3 12 12 12 9 0 16 -7 16 -16z"/>
<path d="M2860 3811 c0 -18 47 -47 58 -36 4 3 -4 8 -17 12 -12 3 -20 11 -17
18 3 8 -2 16 -10 19 -9 3 -14 -1 -14 -13z"/>
<path d="M3038 3813 c7 -3 16 -2 19 1 4 3 -2 6 -13 5 -11 0 -14 -3 -6 -6z"/>
<path d="M3070 3810 c0 -5 7 -10 16 -10 8 0 12 5 9 10 -3 6 -10 10 -16 10 -5
0 -9 -4 -9 -10z"/>
<path d="M3132 3795 c2 -1 13 -8 26 -14 18 -9 22 -9 22 2 0 9 -10 15 -25 15
-14 0 -25 -2 -23 -3z"/>
<path d="M2838 3772 c-10 -2 -18 -8 -18 -13 0 -6 4 -8 9 -4 5 3 12 -4 16 -15
7 -22 45 -48 45 -30 0 5 -7 10 -15 10 -20 0 -19 18 0 22 14 3 13 5 -2 18 -10
9 -26 14 -35 12z"/>
<path d="M2938 3773 c7 -3 16 -2 19 1 4 3 -2 6 -13 5 -11 0 -14 -3 -6 -6z"/>
<path d="M3190 3769 c0 -5 5 -7 10 -4 6 3 10 8 10 11 0 2 -4 4 -10 4 -5 0 -10
-5 -10 -11z"/>
<path d="M3006 3757 c3 -10 9 -15 12 -12 3 3 0 11 -7 18 -10 9 -11 8 -5 -6z"/>
<path d="M2756 3724 c-3 -8 0 -11 8 -8 7 3 16 -2 20 -11 3 -9 10 -13 16 -10
16 10 12 19 -14 31 -20 9 -26 9 -30 -2z"/>
<path d="M2562 3710 c0 -14 2 -19 5 -12 2 6 2 18 0 25 -3 6 -5 1 -5 -13z"/>
<path d="M2700 3721 c0 -4 12 -13 27 -20 22 -10 25 -10 15 2 -7 8 -10 16 -7
18 2 3 -5 5 -15 6 -11 1 -20 -2 -20 -6z"/>
<path d="M2930 3709 c0 -20 16 -24 37 -11 8 5 3 11 -13 19 -21 10 -24 9 -24
-8z"/>
<path d="M2740 3669 c0 -5 5 -7 10 -4 6 3 10 8 10 11 0 2 -4 4 -10 4 -5 0 -10
-5 -10 -11z"/>
<path d="M3115 3660 c3 -5 8 -10 11 -10 2 0 4 5 4 10 0 6 -5 10 -11 10 -5 0
-7 -4 -4 -10z"/>
<path d="M2506 3643 c5 -5 12 -12 16 -18 4 -6 8 -2 8 8 0 9 -7 17 -17 17 -9 0
-12 -3 -7 -7z"/>
<path d="M2756 3638 c3 -4 17 -8 31 -8 15 0 23 3 20 7 -10 9 -56 10 -51 1z"/>
<path d="M3129 3633 c-13 -16 -12 -17 4 -4 9 7 17 15 17 17 0 8 -8 3 -21 -13z"/>
<path d="M2824 3621 c4 -5 2 -11 -2 -13 -14 -5 -24 -58 -12 -58 6 0 8 5 5 10
-3 6 4 10 17 11 22 0 22 1 3 9 -15 7 -16 9 -4 9 9 1 19 10 22 21 4 15 0 20
-15 20 -10 0 -17 -4 -14 -9z"/>
<path d="M3036 3612 c-2 -4 -1 -14 4 -22 7 -11 9 -9 7 8 -1 24 -3 26 -11 14z"/>
<path d="M2860 3590 c0 -5 7 -10 15 -10 8 0 15 5 15 10 0 6 -7 10 -15 10 -8 0
-15 -4 -15 -10z"/>
<path d="M3110 3593 c0 -7 -8 -13 -18 -13 -11 0 -18 -8 -19 -20 -2 -18 0 -19
13 -5 20 19 30 19 38 -1 4 -12 2 -15 -9 -10 -11 4 -15 -1 -15 -18 0 -14 -6
-26 -12 -29 -10 -3 -10 -8 1 -18 8 -8 11 -9 7 -2 -4 7 2 14 14 18 23 7 44 50
34 67 -4 7 -2 8 4 4 7 -4 12 -2 12 3 0 10 -7 13 -26 10 -4 0 -11 5 -15 13 -7
10 -9 10 -9 1z"/>
<path d="M2460 3565 c0 -14 4 -25 9 -25 12 0 19 21 13 38 -8 21 -22 13 -22
-13z"/>
<path d="M2505 3570 c3 -5 8 -10 11 -10 2 0 4 5 4 10 0 6 -5 10 -11 10 -5 0
-7 -4 -4 -10z"/>
<path d="M2825 3529 c4 -6 -1 -17 -11 -25 -11 -9 -13 -12 -5 -8 10 5 13 3 9
-8 -4 -8 -1 -15 5 -15 7 0 13 15 14 34 2 18 -2 33 -8 33 -5 0 -7 -5 -4 -11z"/>
<path d="M3040 3515 c0 -8 4 -15 8 -15 5 0 9 7 9 15 0 8 -4 15 -9 15 -4 0 -8
-7 -8 -15z"/>
<path d="M2932 3475 c0 -16 2 -22 5 -12 2 9 2 23 0 30 -3 6 -5 -1 -5 -18z"/>
<path d="M3025 3440 c4 -6 11 -8 16 -5 14 9 11 15 -7 15 -8 0 -12 -5 -9 -10z"/>
<path d="M3070 3426 c0 -9 30 -14 35 -6 4 6 -3 10 -14 10 -12 0 -21 -2 -21 -4z"/>
<path d="M2054 3651 c-12 -12 -1 -31 17 -31 11 0 18 4 14 9 -3 6 2 14 12 19
14 8 12 10 -11 9 -15 -1 -30 -4 -32 -6z"/>
<path d="M2141 3628 c14 -10 14 -13 -4 -31 -18 -18 -21 -18 -29 -3 -6 11 -17
14 -32 10 -13 -3 -27 -1 -30 5 -4 6 -12 11 -18 11 -7 0 -6 -6 2 -15 10 -13 9
-15 -9 -15 -25 0 -29 -35 -5 -44 27 -10 38 -7 26 7 -12 14 2 47 14 34 4 -4 14
-1 23 5 10 8 9 4 -3 -10 -11 -12 -16 -25 -13 -29 4 -3 7 -2 7 3 0 5 15 10 33
9 38 0 54 13 61 49 4 22 1 26 -17 25 -19 0 -20 -2 -6 -11z"/>
<path d="M2187 3623 c-13 -13 -7 -32 8 -27 8 4 15 12 15 20 0 15 -12 19 -23 7z"/>
<path d="M1952 3499 c-12 -5 -22 -11 -22 -13 0 -3 11 -1 24 4 20 7 25 6 28 -8
3 -14 5 -13 10 4 6 22 -5 26 -40 13z"/>
<path d="M1523 3160 c-9 -14 -10 -21 -1 -26 7 -4 8 -3 4 4 -4 7 -3 12 2 12 6
0 12 7 16 15 8 22 -7 18 -21 -5z"/>
<path d="M2120 3126 c0 -24 3 -26 46 -26 45 0 45 0 30 -22 -9 -12 -16 -31 -16
-41 0 -16 -5 -18 -31 -13 -17 3 -35 6 -40 6 -5 0 -9 10 -9 23 0 12 -5 29 -10
37 -9 13 -12 12 -25 -4 -8 -11 -15 -30 -15 -43 0 -20 -5 -23 -40 -23 -36 0
-40 2 -40 26 0 37 -32 28 -44 -13 -7 -23 -17 -34 -37 -38 -15 -4 -33 -13 -40
-21 -14 -17 -11 -17 39 0 l41 15 10 -30 c9 -27 8 -30 -22 -45 -83 -43 -123
-94 -74 -94 21 0 22 -4 22 -77 0 -88 12 -118 77 -196 33 -39 38 -50 28 -62 -8
-10 -9 -15 -2 -15 6 0 14 5 17 10 12 19 45 11 45 -11 0 -19 1 -19 16 -4 14 14
19 14 33 2 14 -12 26 -12 85 0 81 17 131 40 168 80 34 36 78 118 78 146 0 35
17 7 32 -53 11 -42 19 -56 35 -58 47 -7 35 72 -28 180 -43 73 -125 152 -176
169 -18 6 -33 14 -33 19 0 5 -3 15 -6 24 -9 24 28 20 86 -9 28 -14 50 -22 50
-17 0 10 -74 47 -113 56 -25 6 -27 10 -25 52 3 44 4 45 31 40 15 -3 52 -18 82
-33 37 -18 59 -23 66 -16 18 18 -1 40 -57 67 -43 21 -76 29 -145 33 l-89 6 0
-27z m-62 -138 c-2 -14 -12 -25 -28 -29 -30 -7 -50 6 -50 32 0 16 8 19 41 19
36 0 40 -2 37 -22z m122 -1 c0 -20 -4 -23 -35 -19 -26 3 -35 9 -35 23 0 15 7
19 35 19 30 0 35 -3 35 -23z m0 -156 c0 -4 11 -25 25 -45 l24 -36 -23 0 c-17
0 -30 -11 -46 -37 -19 -32 -23 -35 -31 -20 -6 9 -9 23 -8 29 3 26 -1 38 -15
38 -7 0 -19 6 -25 14 -13 15 4 26 39 26 11 0 24 9 30 20 11 20 30 27 30 11z
m150 -186 c0 -27 -21 -33 -39 -12 -8 10 -7 17 1 25 20 20 38 14 38 -13z m-73
-11 c3 -8 1 -20 -5 -26 -15 -15 -43 8 -35 28 7 19 32 18 40 -2z"/>
<path d="M1322 3123 c-6 -3 -9 -10 -5 -16 4 -6 0 -8 -10 -4 -11 4 -17 1 -17
-7 0 -10 9 -13 29 -10 23 4 29 1 27 -12 0 -9 6 -19 14 -22 13 -4 13 -3 2 10
-9 11 -10 18 -2 23 6 3 8 10 5 14 -2 5 8 6 23 4 20 -3 23 -2 12 5 -21 13 -62
21 -78 15z"/>
<path d="M1408 3123 c7 -3 16 -2 19 1 4 3 -2 6 -13 5 -11 0 -14 -3 -6 -6z"/>
<path d="M1220 3070 c-15 -5 -18 -8 -8 -9 9 -1 22 -3 30 -4 7 -2 10 -2 5 0 -4
3 -5 9 -1 14 3 5 4 9 2 8 -2 -1 -14 -5 -28 -9z"/>
<path d="M1295 3061 c-3 -6 4 -9 15 -8 11 1 20 5 20 9 0 11 -28 10 -35 -1z"/>
<path d="M1610 3008 c0 -25 53 -87 82 -97 17 -6 49 -11 72 -11 l41 1 -24 19
c-13 11 -33 20 -45 20 -13 0 -42 18 -65 40 -43 41 -61 49 -61 28z"/>
<path d="M3374 2890 c-53 -8 -94 -25 -94 -39 0 -5 6 -14 14 -20 12 -10 20 -10
38 0 34 18 152 15 183 -5 30 -19 55 -21 55 -3 0 22 -46 58 -87 68 -42 9 -38 9
-109 -1z"/>
<path d="M2728 2409 c-25 -14 -22 -44 5 -61 29 -19 86 -28 115 -17 29 11 31
63 3 79 -25 13 -101 13 -123 -1z"/>
<path d="M2724 2259 c-30 -34 -63 -42 -112 -28 -23 6 -45 10 -48 7 -10 -10 7
-34 37 -50 36 -21 75 -22 109 -4 23 13 27 12 52 -16 35 -40 101 -50 137 -21
32 26 20 43 -32 43 -52 0 -85 21 -89 58 -4 34 -28 39 -54 11z"/>
<path d="M2690 3479 c0 -5 5 -7 10 -4 6 3 10 8 10 11 0 2 -4 4 -10 4 -5 0 -10
-5 -10 -11z"/>
<path d="M3300 3261 c0 -7 -5 -9 -12 -5 -7 5 -8 3 -3 -5 5 -9 10 -10 18 -2 6
6 8 14 4 18 -4 3 -7 1 -7 -6z"/>
<path d="M3253 3209 c-3 -11 -11 -15 -24 -12 -22 6 -26 -15 -4 -23 8 -4 13
-10 10 -14 -3 -5 0 -12 6 -16 8 -5 9 -3 4 6 -6 10 -4 12 8 7 10 -4 17 -2 17 4
0 6 7 9 14 6 11 -4 13 -1 9 10 -5 11 -3 14 6 8 10 -6 11 -3 2 12 -6 11 -8 22
-6 25 2 2 -5 4 -17 4 -12 0 -23 -8 -25 -17z m37 -9 c0 -5 -4 -10 -10 -10 -5 0
-10 5 -10 10 0 6 5 10 10 10 6 0 10 -4 10 -10z"/>
<path d="M3666 3198 c3 -4 9 -8 15 -8 5 0 9 4 9 8 0 5 -7 9 -15 9 -8 0 -12 -4
-9 -9z"/>
<path d="M3774 3155 c4 -35 16 -44 16 -12 0 14 -4 28 -9 32 -5 3 -8 -6 -7 -20z"/>
<path d="M3780 3096 c0 -2 7 -7 16 -10 8 -3 12 -2 9 4 -6 10 -25 14 -25 6z"/>
<path d="M3434 3052 c3 -5 0 -13 -6 -15 -9 -4 -10 -6 -1 -6 17 -1 25 16 12 25
-7 4 -9 3 -5 -4z"/>
<path d="M3766 2995 c-3 -8 -1 -15 4 -15 6 0 10 7 10 15 0 8 -2 15 -4 15 -2 0
-6 -7 -10 -15z"/>
<path d="M3726 2978 c3 -4 9 -8 15 -8 5 0 9 4 9 8 0 5 -7 9 -15 9 -8 0 -12 -4
-9 -9z"/>
<path d="M3685 2779 c-4 -6 -5 -12 -2 -15 2 -3 7 2 10 11 7 17 1 20 -8 4z"/>
<path d="M1876 3812 c-3 -6 1 -13 10 -16 23 -9 28 -2 10 13 -8 7 -17 8 -20 3z"/>
<path d="M3860 3771 c0 -5 5 -13 10 -16 6 -3 10 -2 10 4 0 5 -4 13 -10 16 -5
3 -10 2 -10 -4z"/>
<path d="M1197 3744 c-4 -4 -7 -14 -7 -23 0 -11 3 -12 11 -4 6 6 10 16 7 23
-2 6 -7 8 -11 4z"/>
<path d="M4230 3341 c0 -5 5 -13 10 -16 6 -3 10 -2 10 4 0 5 -4 13 -10 16 -5
3 -10 2 -10 -4z"/>
<path d="M3920 3272 c0 -5 7 -9 15 -9 8 0 15 4 15 9 0 4 -7 8 -15 8 -8 0 -15
-4 -15 -8z"/>
<path d="M827 2999 c7 -7 15 -10 18 -7 3 3 -2 9 -12 12 -14 6 -15 5 -6 -5z"/>
<path d="M1626 2054 c-4 -9 -4 -19 -1 -22 2 -3 7 3 11 12 4 9 4 19 1 22 -2 3
-7 -3 -11 -12z"/>
<path d="M1382 1964 c-7 -8 -8 -14 -3 -14 10 0 25 19 20 25 -2 1 -10 -3 -17
-11z"/>
<path d="M1500 1814 c0 -8 5 -12 10 -9 6 4 8 11 5 16 -9 14 -15 11 -15 -7z"/>
<path d="M3365 1431 c-3 -5 -1 -12 5 -16 5 -3 10 1 10 9 0 18 -6 21 -15 7z"/>
<path d="M3775 961 c-3 -5 -1 -12 5 -16 5 -3 10 1 10 9 0 18 -6 21 -15 7z"/>
<path d="M3115 920 c3 -5 8 -10 11 -10 2 0 4 5 4 10 0 6 -5 10 -11 10 -5 0 -7
-4 -4 -10z"/>
<path d="M1787 849 c-4 -16 -3 -18 9 -8 16 13 19 29 5 29 -5 0 -11 -9 -14 -21z"/>
<path d="M2446 641 c-4 -5 -2 -12 3 -15 5 -4 12 -2 15 3 4 5 2 12 -3 15 -5 4
-12 2 -15 -3z"/>
</g>
</svg>
